<svg version="1.1" xmlns="http://www.w3.org/2000/svg" width="28" height="28" viewBox="0 0 48 48" style="display: inline; vertical-align: top;"><path d="M0 0 C2.64 0 5.28 0 8 0 C8 1.32 8 2.64 8 4 C9.32 4 10.64 4 12 4 C12 5.32 12 6.64 12 8 C13.32 8 14.64 8 16 8 C16 6.68 16 5.36 16 4 C17.32 4 18.64 4 20 4 C20 2.68 20 1.36 20 0 C22.64 0 25.28 0 28 0 C28 1.32 28 2.64 28 4 C29.32 4 30.64 4 32 4 C32 5.32 32 6.64 32 8 C33.32 8 34.64 8 36 8 C36 10.64 36 13.28 36 16 C34.68 16 33.36 16 32 16 C32 17.32 32 18.64 32 20 C30.68 20 29.36 20 28 20 C28 21.32 28 22.64 28 24 C26.68 24 25.36 24 24 24 C24 25.32 24 26.64 24 28 C22.68 28 21.36 28 20 28 C20 29.32 20 30.64 20 32 C18.68 32 17.36 32 16 32 C16 33.32 16 34.64 16 36 C14.68 36 13.36 36 12 36 C12 34.68 12 33.36 12 32 C10.68 32 9.36 32 8 32 C8 30.68 8 29.36 8 28 C6.68 28 5.36 28 4 28 C4 26.68 4 25.36 4 24 C2.68 24 1.36 24 0 24 C0 22.68 0 21.36 0 20 C-1.32 20 -2.64 20 -4 20 C-4 18.68 -4 17.36 -4 16 C-5.32 16 -6.64 16 -8 16 C-8 13.36 -8 10.72 -8 8 C-6.68 8 -5.36 8 -4 8 C-4 6.68 -4 5.36 -4 4 C-2.68 4 -1.36 4 0 4 C0 2.68 0 1.36 0 0 Z " fill="#C3454E" transform="translate(10,6)"/><path d="M0 0 C1.32 0 2.64 0 4 0 C4 2.64 4 5.28 4 8 C2.68 8 1.36 8 0 8 C0 5.36 0 2.72 0 0 Z " fill="#525252" transform="translate(42,14)"/><path d="M0 0 C1.32 0 2.64 0 4 0 C4 2.64 4 5.28 4 8 C2.68 8 1.36 8 0 8 C0 5.36 0 2.72 0 0 Z " fill="#535353" transform="translate(2,14)"/><path d="M0 0 C2.64 0 5.28 0 8 0 C8 1.32 8 2.64 8 4 C5.36 4 2.72 4 0 4 C0 2.68 0 1.36 0 0 Z " fill="#515151" transform="translate(10,6)"/><path d="M0 0 C2.64 0 5.28 0 8 0 C8 1.32 8 2.64 8 4 C5.36 4 2.72 4 0 4 C0 2.68 0 1.36 0 0 Z " fill="#515151" transform="translate(30,6)"/></svg>
